<svg width="14" height="14" viewBox="0 0 14 14" fill="none" xmlns="http://www.w3.org/2000/svg">
<path fill-rule="evenodd" clip-rule="evenodd" d="M13.4 7.37685C13.4 7.80966 13.3559 8.24188 13.2694 8.6632C13.185 9.0745 13.06 9.4783 12.8962 9.86432C12.7363 10.2435 12.5378 10.6089 12.3059 10.9497C12.0775 11.2883 11.8143 11.606 11.5252 11.8956C11.2355 12.1839 10.9168 12.4463 10.5783 12.6757C10.2364 12.906 9.8705 13.1042 9.49109 13.2649C9.10452 13.4278 8.69978 13.5526 8.28883 13.6369C7.86696 13.7236 7.43316 13.7679 6.99972 13.7679C6.56595 13.7679 6.13218 13.7236 5.71091 13.6369C5.29933 13.5526 4.89462 13.4278 4.50835 13.2649C4.12896 13.1042 3.76267 12.906 3.42079 12.6757C3.08234 12.4464 2.76357 12.1839 2.47449 11.8956C2.18511 11.606 1.92196 11.2883 1.6932 10.9497C1.46256 10.6089 1.26379 10.2435 1.10317 9.86432C0.939387 9.4783 0.814086 9.07448 0.729391 8.6632C0.643769 8.24188 0.600006 7.80966 0.600006 7.37685C0.600006 6.9437 0.643744 6.51056 0.729416 6.09017C0.814111 5.67886 0.939412 5.27444 1.10319 4.88904C1.26381 4.50958 1.46259 4.14385 1.69322 3.80306C1.92198 3.46416 2.18514 3.14709 2.47452 2.85717C2.7636 2.56881 3.08236 2.30701 3.42081 2.07796C3.7627 1.8467 4.12898 1.64857 4.50837 1.48753C4.89465 1.32428 5.29933 1.19916 5.71093 1.11554C6.1322 1.02942 6.56597 0.985718 6.99974 0.985718C7.43319 0.985718 7.86696 1.02942 8.28885 1.11554C8.6998 1.19919 9.10452 1.32431 9.49112 1.48753C9.8705 1.64854 10.2365 1.8467 10.5783 2.07796C10.9168 2.30701 11.2356 2.56881 11.5253 2.85717C11.8144 3.14709 12.0775 3.46416 12.3059 3.80306C12.5378 4.14385 12.7363 4.5096 12.8962 4.88904C13.06 5.27444 13.185 5.67886 13.2694 6.09017C13.3559 6.51056 13.4 6.9437 13.4 7.37685ZM4.6677 2.44025C3.14354 3.15896 2.00598 4.56137 1.65127 6.25153C1.79536 6.25278 4.07298 6.28149 6.69717 5.58525C5.75119 3.90695 4.74052 2.53733 4.6677 2.44025ZM7.15 6.42568C4.3358 7.26698 1.63534 7.20644 1.53847 7.20272C1.53689 7.26137 1.53408 7.31816 1.53408 7.37684C1.53408 8.77893 2.06379 10.0572 2.93447 11.0236C2.93259 11.0208 4.42831 8.37108 7.37783 7.41866C7.44907 7.39495 7.52159 7.37371 7.59346 7.35313C7.45629 7.04295 7.30656 6.73213 7.15 6.42568ZM10.6093 3.28066C9.64701 2.43338 8.38353 1.91944 6.9997 1.91944C6.55561 1.91944 6.12464 1.97312 5.71182 2.07235C5.79368 2.18221 6.82031 3.54218 7.75504 5.25602C9.81735 4.48399 10.5958 3.30062 10.6093 3.28066ZM7.96602 8.25749C7.95385 8.26152 7.94168 8.26499 7.92978 8.26935C4.70498 9.39194 3.65187 11.6543 3.64048 11.679C4.56836 12.3995 5.73217 12.8342 6.99974 12.8342C7.75663 12.8342 8.4776 12.6804 9.13357 12.4017C9.05263 11.9249 8.73512 10.2535 7.96602 8.25749ZM10.0539 11.903C11.2812 11.0761 12.1528 9.76291 12.3959 8.24186C12.2834 8.20566 10.7543 7.72226 8.99009 8.0047C9.707 9.97198 9.99829 11.5741 10.0539 11.903ZM8.17573 6.06928C8.30259 6.32955 8.42543 6.59445 8.53886 6.86067C8.57919 6.95618 8.61857 7.0498 8.657 7.14341C10.5346 6.90747 12.3844 7.30442 12.4635 7.32063C12.451 6.02683 11.9875 4.83941 11.2206 3.90978C11.2103 3.92442 10.3337 5.18923 8.17573 6.06928Z" fill="white"/>
</svg>
