<svg width="14" height="14" viewBox="0 0 14 14" fill="none" xmlns="http://www.w3.org/2000/svg">
<path fill-rule="evenodd" clip-rule="evenodd" d="M7.00061 0.985718C5.26245 0.985718 5.04432 0.993318 4.36165 1.02438C3.68031 1.05559 3.21523 1.16345 2.8083 1.32172C2.38736 1.48519 2.03029 1.70386 1.67455 2.05973C1.31855 2.41547 1.09988 2.77254 0.935876 3.19334C0.777208 3.60041 0.669207 4.06562 0.63854 4.74669C0.608006 5.42936 0.600006 5.64763 0.600006 7.38578C0.600006 9.12393 0.60774 9.3414 0.638673 10.0241C0.670007 10.7054 0.777875 11.1705 0.93601 11.5774C1.09961 11.9984 1.31828 12.3554 1.67415 12.7112C2.02975 13.0672 2.38682 13.2864 2.8075 13.4498C3.2147 13.6081 3.6799 13.716 4.36111 13.7472C5.04379 13.7783 5.26179 13.7859 6.99981 13.7859C8.73809 13.7859 8.95556 13.7783 9.63823 13.7472C10.3196 13.716 10.7852 13.6081 11.1924 13.4498C11.6132 13.2864 11.9697 13.0672 12.3253 12.7112C12.6813 12.3554 12.9 11.9984 13.064 11.5776C13.2213 11.1705 13.3293 10.7053 13.3613 10.0242C13.392 9.34154 13.4 9.12393 13.4 7.38578C13.4 5.64763 13.392 5.4295 13.3613 4.74682C13.3293 4.06548 13.2213 3.60041 13.064 3.19347C12.9 2.77254 12.6813 2.41547 12.3253 2.05973C11.9693 1.70373 11.6133 1.48506 11.192 1.32172C10.784 1.16345 10.3186 1.05559 9.6373 1.02438C8.95463 0.993318 8.73729 0.985718 6.99861 0.985718H7.00061ZM6.42644 2.13905C6.59684 2.13878 6.78698 2.13905 7.00058 2.13905C8.7094 2.13905 8.91193 2.14518 9.58674 2.17585C10.2107 2.20438 10.5494 2.30865 10.775 2.39625C11.0737 2.51225 11.2866 2.65092 11.5105 2.87492C11.7345 3.09892 11.8732 3.31226 11.9894 3.61093C12.077 3.83626 12.1814 4.17493 12.2098 4.79894C12.2405 5.47361 12.2472 5.67628 12.2472 7.3843C12.2472 9.09232 12.2405 9.29499 12.2098 9.96966C12.1813 10.5937 12.077 10.9323 11.9894 11.1577C11.8734 11.4563 11.7345 11.669 11.5105 11.8929C11.2865 12.1169 11.0738 12.2556 10.775 12.3716C10.5497 12.4596 10.2107 12.5636 9.58674 12.5921C8.91207 12.6228 8.7094 12.6294 7.00058 12.6294C5.29163 12.6294 5.08909 12.6228 4.41442 12.5921C3.79041 12.5633 3.45174 12.459 3.22601 12.3714C2.92734 12.2554 2.714 12.1167 2.49 11.8927C2.266 11.6687 2.12733 11.4559 2.01106 11.1571C1.92346 10.9318 1.81906 10.5931 1.79066 9.96913C1.75999 9.29445 1.75386 9.09178 1.75386 7.3827C1.75386 5.67361 1.75999 5.47201 1.79066 4.79734C1.81919 4.17333 1.92346 3.83466 2.01106 3.60906C2.12706 3.31039 2.266 3.09705 2.49 2.87305C2.714 2.64905 2.92734 2.51038 3.22601 2.39411C3.45161 2.30611 3.79041 2.20211 4.41442 2.17345C5.00482 2.14678 5.23363 2.13878 6.42644 2.13745V2.13905ZM10.4169 3.20173C9.99288 3.20173 9.64888 3.54533 9.64888 3.96947C9.64888 4.39347 9.99288 4.73747 10.4169 4.73747C10.8409 4.73747 11.1849 4.39347 11.1849 3.96947C11.1849 3.54546 10.8409 3.20173 10.4169 3.20173ZM7.00062 4.09907C5.18553 4.09907 3.71392 5.57068 3.71392 7.38577C3.71392 9.20085 5.18553 10.6718 7.00062 10.6718C8.8157 10.6718 10.2868 9.20085 10.2868 7.38577C10.2868 5.57068 8.8157 4.09907 7.00062 4.09907ZM7.00059 5.25241C8.17874 5.25241 9.13395 6.20749 9.13395 7.38577C9.13395 8.56391 8.17874 9.51912 7.00059 9.51912C5.82231 9.51912 4.86724 8.56391 4.86724 7.38577C4.86724 6.20749 5.82231 5.25241 7.00059 5.25241Z" fill="white"/>
</svg>
