<svg width="14" height="11" viewBox="0 0 14 11" fill="none" xmlns="http://www.w3.org/2000/svg">
<path fill-rule="evenodd" clip-rule="evenodd" d="M12.0008 1.26038C12.5515 1.41151 12.9853 1.85682 13.1325 2.42233C13.4 3.44724 13.4 5.58572 13.4 5.58572C13.4 5.58572 13.4 7.72412 13.1325 8.74911C12.9853 9.31461 12.5515 9.75992 12.0008 9.91113C11.0027 10.1857 6.99998 10.1857 6.99998 10.1857C6.99998 10.1857 2.99728 10.1857 1.9991 9.91113C1.44834 9.75992 1.01459 9.31461 0.867394 8.74911C0.599976 7.72412 0.599976 5.58572 0.599976 5.58572C0.599976 5.58572 0.599976 3.44724 0.867394 2.42233C1.01459 1.85682 1.44834 1.41151 1.9991 1.26038C2.99728 0.985718 6.99998 0.985718 6.99998 0.985718C6.99998 0.985718 11.0027 0.985718 12.0008 1.26038ZM5.79999 3.78568V7.78568L8.99999 5.78575L5.79999 3.78568Z" fill="white"/>
</svg>
